<?xml version="1.0" standalone="no"?>
<!DOCTYPE svg PUBLIC "-//W3C//DTD SVG 20010904//EN"
 "http://www.w3.org/TR/2001/REC-SVG-20010904/DTD/svg10.dtd">
<svg version="1.0" xmlns="http://www.w3.org/2000/svg"
 width="200.000000pt" height="200.000000pt" viewBox="0 0 200.000000 200.000000"
 preserveAspectRatio="xMidYMid meet">

<g transform="translate(0.000000,200.000000) scale(0.100000,-0.100000)"
fill="#5a4632" stroke="none">
<path d="M885 1656 c-38 -8 -96 -24 -128 -36 -74 -28 -193 -108 -242 -161
-247 -273 -240 -672 16 -928 147 -147 351 -218 549 -191 133 18 221 55 329
136 94 70 112 134 49 178 -39 27 -72 20 -130 -30 -203 -174 -490 -163 -679 25
-199 199 -199 503 0 702 72 71 157 119 249 138 285 59 564 -142 598 -433 l7
-56 -84 0 -84 0 125 -125 125 -125 123 122 122 123 -79 3 -80 3 -6 47 c-26
206 -114 369 -258 478 -151 115 -348 164 -522 130z"/>
</g>
</svg>
